HIERARCHY
ROOT Hips
{
	OFFSET 0.000000 0.000000 0.000000
	CHANNELS 6 Xposition Yposition Zposition Zrotation Yrotation Xrotation 
	JOINT LHipJoint
	{
		OFFSET 0.000000 0.000000 0.000000
		CHANNELS 3 Zrotation Yrotation Xrotation
		JOINT LeftUpLeg
		{
			OFFSET 1.363060 -1.794630 0.839290
			CHANNELS 3 Zrotation Yrotation Xrotation
			JOINT LeftLeg
			{
				OFFSET 2.448110 -6.726130 0.000000
				CHANNELS 3 Zrotation Yrotation Xrotation
				JOINT LeftFoot
				{
					OFFSET 2.562200 -7.039590 0.000000
					CHANNELS 3 Zrotation Yrotation Xrotation
					JOINT LeftToeBase
					{
						OFFSET 0.157640 -0.433110 2.322550
						CHANNELS 3 Zrotation Yrotation Xrotation
						End Site
						{
							OFFSET 0.000000 0.000000 0.000000
						}
					}
				}
			}
		}
	}
	JOINT RHipJoint
	{
		OFFSET 0.000000 0.000000 0.000000
		CHANNELS 3 Zrotation Yrotation Xrotation
		JOINT RightUpLeg
		{
			OFFSET -1.305520 -1.794630 0.839290
			CHANNELS 3 Zrotation Yrotation Xrotation
			JOINT RightLeg
			{
				OFFSET -2.542530 -6.985550 0.000000
				CHANNELS 3 Zrotation Yrotation Xrotation
				JOINT RightFoot
				{
					OFFSET -2.568260 -7.056230 0.000000
					CHANNELS 3 Zrotation Yrotation Xrotation
					JOINT RightToeBase
					{
						OFFSET -0.164730 -0.452590 2.363150
						CHANNELS 3 Zrotation Yrotation Xrotation
						End Site
						{
							OFFSET 0.000000 0.000000 0.000000
						}
					}
				}
			}
		}
	}
	JOINT LowerBack
	{
		OFFSET 0.000000 0.000000 0.000000
		CHANNELS 3 Zrotation Yrotation Xrotation
		JOINT Spine
		{
			OFFSET 0.028270 2.035590 -0.193380
			CHANNELS 3 Zrotation Yrotation Xrotation
			JOINT Spine1
			{
				OFFSET 0.056720 2.048850 -0.042750
				CHANNELS 3 Zrotation Yrotation Xrotation
				JOINT Neck
				{
					OFFSET 0.000000 0.000000 0.000000
					CHANNELS 3 Zrotation Yrotation Xrotation
					JOINT Neck1
					{
						OFFSET -0.054170 1.746240 0.172020
						CHANNELS 3 Zrotation Yrotation Xrotation
						JOINT Head
						{
							OFFSET 0.104070 1.761360 -0.123970
							CHANNELS 3 Zrotation Yrotation Xrotation
							End Site
							{
								OFFSET 0.000000 0.000000 0.000000
							}
						}
					}
				}
				JOINT LeftShoulder
				{
					OFFSET 0.000000 0.000000 0.000000
					CHANNELS 3 Zrotation Yrotation Xrotation
					JOINT LeftArm
					{
						OFFSET 3.362410 1.200890 -0.311210
						CHANNELS 3 Zrotation Yrotation Xrotation
						JOINT LeftForeArm
						{
							OFFSET 4.983000 -0.000000 -0.000000
							CHANNELS 3 Zrotation Yrotation Xrotation
							JOINT LeftHand
							{
								OFFSET 3.483560 -0.000000 -0.000000
								CHANNELS 3 Zrotation Yrotation Xrotation
								JOINT LeftFingerBase
								{
									OFFSET 0.000000 0.000000 0.000000
									CHANNELS 3 Zrotation Yrotation Xrotation
									JOINT LeftHandIndex1
									{
										OFFSET 0.715260 -0.000000 -0.000000
										CHANNELS 3 Zrotation Yrotation Xrotation
										End Site
										{
											OFFSET 0.000000 0.000000 0.000000
										}
									}
								}
								JOINT LThumb
								{
									OFFSET 0.000000 0.000000 0.000000
									CHANNELS 3 Zrotation Yrotation Xrotation
									End Site
									{
										OFFSET 0.000000 0.000000 0.000000
									}
								}
							}
						}
					}
				}
				JOINT RightShoulder
				{
					OFFSET 0.000000 0.000000 0.000000
					CHANNELS 3 Zrotation Yrotation Xrotation
					JOINT RightArm
					{
						OFFSET -3.136600 1.374050 -0.404650
						CHANNELS 3 Zrotation Yrotation Xrotation
						JOINT RightForeArm
						{
							OFFSET -5.241900 -0.000000 -0.000000
							CHANNELS 3 Zrotation Yrotation Xrotation
							JOINT RightHand
							{
								OFFSET -3.444170 -0.000000 -0.000000
								CHANNELS 3 Zrotation Yrotation Xrotation
								JOINT RightFingerBase
								{
									OFFSET 0.000000 0.000000 0.000000
									CHANNELS 3 Zrotation Yrotation Xrotation
									JOINT RightHandIndex1
									{
										OFFSET -0.622530 -0.000000 -0.000000
										CHANNELS 3 Zrotation Yrotation Xrotation
										End Site
										{
											OFFSET 0.000000 0.000000 0.000000
										}
									}
								}
								JOINT RThumb
								{
									OFFSET 0.000000 0.000000 0.000000
									CHANNELS 3 Zrotation Yrotation Xrotation
									End Site
									{
										OFFSET 0.000000 0.000000 0.000000
									}
								}
							}
						}
					}
				}
			}
		}
	}
}
MOTION
Frames: 7
Frame Time: 0.008333
0.487150 16.711734 1.473462 15.910563 43.184546 24.596402 -10.915030 3.046896 -3.348892 -3.931372 20.746638 -21.937428 -0.201737 2.976108 53.698943 1.733954 4.117276 26.093031 1.312400 0.000000 -61.420300 9.377121 0.353933 -0.243989 17.618335 -8.430924 -36.380568 2.311273 -0.020898 20.916660 -4.984826 -14.880231 -23.542319 -176.487500 -0.000000 -16.018899 1.807903 -3.257271 3.992104 -0.201409 -3.266837 -1.496307 -5.514962 -3.301867 2.652615 10.039729 -9.086527 -6.940111 -2.780724 -0.207579 0.063097 0.000000 0.000000 0.000000 -1.373103 7.648231 3.576994 -24.061921 -6.937919 3.564746 -3.671879 -40.843393 0.009026 -10.206798 -0.315096 0.031940 -0.137032 0.036232 0.000000 0.000000 0.000000 0.000000 0.000000 0.000000 0.000000 14.857090 -8.519530 0.836839 55.642549 -1.293753 -2.570894 4.358616 23.481392 0.010748 10.995470 5.491182 0.528094 0.065598 -0.020516 -0.000000 0.000000 0.000000 0.000000 0.000000 0.000000 0.000000 
0.539120 16.716580 1.593832 15.452944 41.870190 24.234084 -10.837383 2.888604 -3.332910 -3.835879 20.111025 -22.900698 -0.073835 3.050801 55.567322 1.911078 6.282243 25.934166 2.407500 0.000000 -58.417600 9.405683 0.303051 -0.173926 17.663510 -7.713682 -35.542364 2.305318 0.016825 20.859268 -4.918167 -14.512934 -23.883410 -176.423900 -0.000000 -16.654200 1.598871 -3.112948 3.934411 -0.263398 -3.114799 -1.520306 -5.566665 -3.150800 2.624309 10.206753 -8.469977 -6.769247 -2.788841 -0.210132 0.105863 0.000000 0.000000 0.000000 -1.207459 7.853338 3.525739 -24.693110 -6.029092 5.010121 -3.658335 -41.380432 0.006902 -10.389450 -0.309018 0.030817 -0.136077 0.024213 -0.000000 0.000000 0.000000 0.000000 0.000000 0.000000 0.000000 14.896406 -7.823725 0.875082 55.792950 -0.152167 -2.914823 4.408378 22.373976 0.010983 11.142580 5.404094 0.526797 0.066511 -0.021497 -0.000000 0.000000 0.000000 0.000000 0.000000 0.000000 0.000000 
0.587833 16.723442 1.716318 15.057069 40.504647 23.965962 -10.736764 2.737400 -3.294699 -3.841019 19.331316 -23.851787 0.048532 3.113233 57.251060 2.090393 8.577234 25.456306 3.550800 -0.000000 -55.791500 9.455463 0.270693 -0.064242 17.611520 -6.867482 -34.654418 2.280793 0.075998 20.642668 -4.866347 -14.212440 -24.188093 -176.366300 -0.000000 -17.218899 1.325165 -2.983058 3.823951 -0.335199 -2.976025 -1.553214 -5.612876 -3.013125 2.600438 10.360495 -7.883436 -6.600403 -2.792764 -0.212411 0.148580 0.000000 0.000000 0.000000 -1.056696 8.058636 3.471318 -25.342527 -5.028300 6.488025 -3.647278 -41.866320 0.004544 -10.542353 -0.277947 0.027289 -0.135371 0.011693 -0.000000 0.000000 0.000000 0.000000 0.000000 0.000000 0.000000 14.916702 -7.160625 0.909004 55.975623 1.083382 -3.032430 4.444125 21.457640 0.011263 11.291607 5.340721 0.527803 0.066746 -0.022866 -0.000000 0.000000 0.000000 0.000000 0.000000 0.000000 0.000000 
0.633903 16.732632 1.840448 14.710909 39.102660 23.781309 -10.619967 2.593415 -3.228927 -3.919444 18.404241 -24.788407 0.164186 3.161528 58.737164 2.269088 10.873575 24.723696 4.654301 0.000000 -53.553200 9.520442 0.253561 0.079274 17.481195 -5.915246 -33.736044 2.241915 0.152753 20.284680 -4.822107 -13.956701 -24.436335 -176.322600 -0.000000 -17.697600 1.010703 -2.866501 3.663164 -0.411924 -2.850218 -1.594608 -5.652254 -2.888603 2.580419 10.488622 -7.320878 -6.437765 -2.793752 -0.214450 0.190073 0.000000 0.000000 0.000000 -0.935794 8.287017 3.414912 -26.010999 -3.995092 7.990312 -3.641378 -42.264979 0.002045 -10.659698 -0.225632 0.021562 -0.135107 -0.000979 -0.000000 0.000000 0.000000 0.000000 0.000000 0.000000 0.000000 14.911793 -6.521011 0.936937 56.194087 2.370100 -2.933634 4.465029 20.789369 0.011563 11.450611 5.293050 0.530810 0.066161 -0.024539 -0.000000 0.000000 0.000000 0.000000 0.000000 0.000000 0.000000 
0.677908 16.744371 1.965750 14.399499 37.676479 23.666242 -10.493462 2.456358 -3.132149 -4.038845 17.335561 -25.706797 0.271414 3.194572 60.015151 2.442284 13.049782 23.808156 5.643200 -0.000000 -51.706000 9.594237 0.247426 0.249614 17.295183 -4.883668 -32.801156 2.193532 0.243671 19.800197 -4.778289 -13.722656 -24.611347 -176.300299 0.000000 -18.076400 0.677366 -2.761274 3.457030 -0.489155 -2.735987 -1.644642 -5.683012 -2.776016 2.560115 10.582142 -6.794578 -6.283136 -2.792929 -0.216327 0.230014 0.000000 0.000000 0.000000 -0.844999 8.511717 3.355891 -26.721271 -2.906684 9.485706 -3.640340 -42.580918 -0.000560 -10.746436 -0.149049 0.013435 -0.135241 -0.013677 0.000000 0.000000 0.000000 0.000000 0.000000 0.000000 0.000000 14.878301 -5.915603 0.960962 56.440666 3.691766 -2.571219 4.470940 20.401618 0.011891 11.609425 5.270087 0.536220 0.064787 -0.026509 -0.000000 0.000000 0.000000 0.000000 0.000000 0.000000 0.000000 
0.720240 16.758747 2.091761 14.108158 36.235547 23.604588 -10.363143 2.325659 -3.004061 -4.165834 16.142622 -26.602510 0.368602 3.212529 61.080148 2.602588 14.995903 22.770333 6.457900 -0.000000 -50.094300 9.670838 0.247615 0.438914 17.076395 -3.802022 -31.857667 2.140667 0.345660 19.201193 -4.728295 -13.488481 -24.699708 -176.305600 -0.000000 -18.345300 0.344052 -2.663792 3.213954 -0.563306 -2.630109 -1.702199 -5.703982 -2.672189 2.537442 10.635916 -6.302247 -6.138804 -2.790985 -0.218060 0.267778 0.000000 0.000000 0.000000 -0.785800 8.737388 3.294823 -27.484696 -1.796035 10.966229 -3.645568 -42.794553 -0.003198 -10.805579 -0.051554 0.003206 -0.135783 -0.026158 -0.000000 0.000000 0.000000 0.000000 0.000000 0.000000 0.000000 14.813345 -5.338421 0.981146 56.711725 5.013600 -1.936853 4.461575 20.331615 0.012227 11.769490 5.267393 0.543732 0.062568 -0.028716 -0.000000 0.000000 0.000000 0.000000 0.000000 0.000000 0.000000 
0.761159 16.775674 2.218177 13.824983 34.785185 23.581062 -10.233019 2.200539 -2.845646 -4.271275 14.847165 -27.467308 0.454158 3.214916 61.922278 2.744093 16.640118 21.695484 7.074500 -0.000000 -48.902900 9.746082 0.250216 0.638693 16.844393 -2.701228 -30.907648 2.088183 0.456111 18.497280 -4.665909 -13.232438 -24.692842 -176.343600 0.000000 -18.499600 0.022235 -2.570606 2.943481 -0.632406 -2.529197 -1.766450 -5.714323 -2.573825 2.508761 10.650925 -5.868982 -6.006489 -2.788762 -0.219708 0.303057 0.000000 0.000000 0.000000 -0.750470 8.921063 3.229736 -28.322334 -0.612151 12.399008 -3.654887 -42.930554 -0.005882 -10.850550 0.071023 -0.009522 -0.136459 -0.038451 -0.000000 0.000000 0.000000 0.000000 0.000000 0.000000 0.000000 14.724198 -4.814275 1.001327 56.987229 6.346509 -0.949637 4.437045 20.580188 0.012607 11.908260 5.303507 0.554446 0.059661 -0.031219 -0.000000 0.000000 0.000000 0.000000 0.000000 0.000000 0.000000 
